<svg xmlns="http://www.w3.org/2000/svg" id="Layer_1" viewBox="0 0 20 16">
  <style>
    .st0{fill:#FFFFFF;}
  </style>
  <path d="M17.3 4.2v.5c0 5-3.8 10.7-10.7 10.7-2.1 0-4.1-.6-5.8-1.7.3 0 .6.1.9.1 1.8 0 3.4-.6 4.7-1.6-1.6 0-3-1.1-3.5-2.6.2 0 .5.1.7.1.3 0 .7 0 1-.1-1.8-.4-3-1.9-3-3.7.4.2 1 .3 1.6.4-1-.7-1.6-1.9-1.6-3.2 0-.7.2-1.3.5-1.9C4 3.6 6.8 5 9.9 5.2c-.5-2 .8-4.1 2.8-4.5.3-.1.6-.1.9-.1 1.1 0 2.1.5 2.8 1.2.8-.2 1.7-.5 2.4-.9-.3.9-.9 1.6-1.7 2.1.7-.1 1.5-.3 2.2-.6-.6.6-1.2 1.3-2 1.8z" class="st0"/>
</svg>
